<svg xmlns="http://www.w3.org/2000/svg" width="1200" height="440" viewBox="0 0 1200 440">
<rect width="100%" height="100%" fill="#030507"/>
<text x="70" y="28" fill="#f4f7fa" font-family="Arial" font-size="22" font-weight="700">Strategy Comparison: US Stocks Backtest</text>
<line x1="70" y1="45.0" x2="1170" y2="45.0" stroke="#243241" stroke-width="1"/>
<text x="60" y="49.0" text-anchor="end" fill="#8292a2" font-family="Arial" font-size="12">3290</text>
<line x1="70" y1="130.0" x2="1170" y2="130.0" stroke="#243241" stroke-width="1"/>
<text x="60" y="134.0" text-anchor="end" fill="#8292a2" font-family="Arial" font-size="12">2433</text>
<line x1="70" y1="215.0" x2="1170" y2="215.0" stroke="#243241" stroke-width="1"/>
<text x="60" y="219.0" text-anchor="end" fill="#8292a2" font-family="Arial" font-size="12">1576</text>
<line x1="70" y1="300.0" x2="1170" y2="300.0" stroke="#243241" stroke-width="1"/>
<text x="60" y="304.0" text-anchor="end" fill="#8292a2" font-family="Arial" font-size="12">718</text>
<line x1="70" y1="385.0" x2="1170" y2="385.0" stroke="#243241" stroke-width="1"/>
<text x="60" y="389.0" text-anchor="end" fill="#8292a2" font-family="Arial" font-size="12">-139</text>
<polyline points="70.0,361.3 76.8,361.6 83.7,361.4 90.5,361.2 97.3,361.2 104.2,361.2 111.0,360.9 117.8,361.3 124.7,361.0 131.5,360.6 138.3,360.3 145.2,360.4 152.0,360.7 158.8,360.3 165.7,360.2 172.5,360.0 179.3,359.6 186.1,359.7 193.0,359.7 199.8,358.7 206.6,358.7 213.5,358.1 220.3,357.2 227.1,357.5 234.0,357.5 240.8,356.8 247.6,356.8 254.5,357.2 261.3,357.1 268.1,357.6 275.0,357.0 281.8,357.6 288.6,357.4 295.5,354.9 302.3,353.8 309.1,353.6 316.0,354.4 322.8,354.5 329.6,353.1 336.5,353.8 343.3,351.6 350.1,351.7 357.0,350.8 363.8,350.8 370.6,350.2 377.5,349.9 384.3,349.8 391.1,348.6 398.0,347.7 404.8,345.6 411.6,344.5 418.4,343.6 425.3,342.3 432.1,342.8 438.9,341.8 445.8,341.1 452.6,341.6 459.4,338.9 466.3,337.4 473.1,337.0 479.9,334.2 486.8,335.4 493.6,336.0 500.4,334.6 507.3,333.5 514.1,332.0 520.9,330.2 527.8,323.6 534.6,323.1 541.4,325.7 548.3,327.8 555.1,331.2 561.9,329.0 568.8,327.7 575.6,325.6 582.4,323.3 589.3,328.0 596.1,324.3 602.9,323.2 609.8,322.0 616.6,320.8 623.4,319.4 630.2,318.3 637.1,318.0 643.9,314.3 650.7,318.5 657.6,326.0 664.4,317.6 671.2,316.1 678.1,309.0 684.9,302.2 691.7,296.2 698.6,294.5 705.4,295.6 712.2,288.0 719.1,289.9 725.9,293.0 732.7,296.4 739.6,292.6 746.4,282.9 753.2,283.0 760.1,281.4 766.9,274.1 773.7,269.1 780.6,272.9 787.4,263.7 794.2,262.5 801.1,260.4 807.9,269.2 814.7,269.0 821.6,259.4 828.4,265.4 835.2,276.7 842.0,283.0 848.9,274.5 855.7,278.3 862.5,285.8 869.4,276.1 876.2,269.8 883.0,277.3 889.9,273.6 896.7,274.5 903.5,268.5 910.4,267.0 917.2,246.4 924.0,236.5 930.9,233.8 937.7,234.9 944.5,237.9 951.4,241.4 958.2,230.8 965.0,217.4 971.9,210.7 978.7,200.3 985.5,201.1 992.4,206.3 999.2,192.7 1006.0,182.9 1012.9,186.7 1019.7,171.5 1026.5,162.4 1033.4,163.3 1040.2,141.8 1047.0,142.6 1053.9,134.5 1060.7,134.8 1067.5,159.7 1074.3,141.7 1081.2,132.5 1088.0,120.5 1094.8,101.6 1101.7,116.4 1108.5,97.8 1115.3,96.8 1122.2,97.2 1129.0,101.2 1135.8,94.6 1142.7,85.8 1149.5,99.1 1156.3,68.4 1163.2,84.3 1170.0,107.0" fill="none" stroke="#f4f7fa" stroke-width="3" stroke-linejoin="round" stroke-linecap="round"/>
<polyline points="70.0,361.3 76.8,361.2 83.7,360.8 90.5,360.6 97.3,360.4 104.2,360.5 111.0,360.0 117.8,360.3 124.7,359.9 131.5,359.4 138.3,359.1 145.2,358.8 152.0,359.2 158.8,358.7 165.7,358.5 172.5,358.5 179.3,358.2 186.1,357.9 193.0,358.1 199.8,357.6 206.6,357.7 213.5,357.4 220.3,357.0 227.1,357.1 234.0,357.5 240.8,356.7 247.6,357.0 254.5,356.8 261.3,356.6 268.1,356.9 275.0,356.6 281.8,357.5 288.6,357.8 295.5,356.7 302.3,356.7 309.1,356.9 316.0,357.6 322.8,357.6 329.6,356.7 336.5,356.7 343.3,356.4 350.1,356.4 357.0,355.8 363.8,355.8 370.6,355.8 377.5,356.1 384.3,355.5 391.1,355.2 398.0,354.9 404.8,354.3 411.6,354.2 418.4,354.1 425.3,353.8 432.1,353.7 438.9,353.4 445.8,353.3 452.6,352.9 459.4,352.5 466.3,351.9 473.1,351.7 479.9,350.6 486.8,351.3 493.6,351.9 500.4,351.8 507.3,351.3 514.1,351.2 520.9,350.5 527.8,349.8 534.6,349.7 541.4,351.2 548.3,350.8 555.1,352.6 561.9,351.1 568.8,350.4 575.6,350.1 582.4,349.2 589.3,350.6 596.1,349.2 602.9,348.8 609.8,349.2 616.6,348.8 623.4,348.3 630.2,347.5 637.1,346.8 643.9,346.8 650.7,348.7 657.6,351.5 664.4,349.0 671.2,348.0 678.1,347.6 684.9,346.2 691.7,344.4 698.6,345.4 705.4,346.1 712.2,343.3 719.1,342.3 725.9,342.6 732.7,341.8 739.6,340.4 746.4,338.8 753.2,338.6 760.1,337.9 766.9,337.1 773.7,336.0 780.6,337.7 787.4,335.3 794.2,335.6 801.1,334.0 807.9,335.9 814.7,337.0 821.6,335.7 828.4,338.8 835.2,338.7 842.0,341.4 848.9,338.7 855.7,340.0 862.5,342.9 869.4,340.6 876.2,338.9 883.0,340.7 889.9,338.8 896.7,339.6 903.5,338.5 910.4,337.9 917.2,337.8 924.0,335.6 930.9,334.5 937.7,335.1 944.5,336.8 951.4,337.5 958.2,334.4 965.0,332.8 971.9,332.1 978.7,330.1 985.5,328.8 992.4,330.5 999.2,328.4 1006.0,326.9 1012.9,326.4 1019.7,325.3 1026.5,324.3 1033.4,324.8 1040.2,322.0 1047.0,323.2 1053.9,321.9 1060.7,322.5 1067.5,325.2 1074.3,325.6 1081.2,322.8 1088.0,320.3 1094.8,319.1 1101.7,318.0 1108.5,316.1 1115.3,314.8 1122.2,314.7 1129.0,314.7 1135.8,313.8 1142.7,314.3 1149.5,317.1 1156.3,311.4 1163.2,308.3 1170.0,309.8" fill="none" stroke="#4ca7ff" stroke-width="3" stroke-linejoin="round" stroke-linecap="round"/>
<polyline points="70.0,361.3 76.8,361.3 83.7,361.2 90.5,361.1 97.3,361.0 104.2,361.2 111.0,360.8 117.8,361.1 124.7,360.7 131.5,360.5 138.3,360.4 145.2,360.1 152.0,359.9 158.8,359.6 165.7,360.0 172.5,360.1 179.3,359.6 186.1,359.4 193.0,359.4 199.8,358.8 206.6,358.6 213.5,358.8 220.3,358.7 227.1,358.8 234.0,358.5 240.8,357.8 247.6,357.7 254.5,358.0 261.3,357.3 268.1,357.5 275.0,357.7 281.8,357.9 288.6,358.0 295.5,357.6 302.3,357.3 309.1,357.4 316.0,358.2 322.8,358.1 329.6,357.9 336.5,357.9 343.3,357.1 350.1,357.1 357.0,356.3 363.8,356.0 370.6,355.3 377.5,355.5 384.3,354.5 391.1,353.8 398.0,353.8 404.8,353.2 411.6,353.2 418.4,353.5 425.3,352.7 432.1,352.8 438.9,351.9 445.8,352.0 452.6,351.8 459.4,351.6 466.3,351.4 473.1,351.7 479.9,350.2 486.8,350.5 493.6,350.9 500.4,350.8 507.3,350.3 514.1,350.1 520.9,350.2 527.8,349.0 534.6,348.8 541.4,351.2 548.3,351.0 555.1,351.4 561.9,350.6 568.8,350.4 575.6,350.3 582.4,350.4 589.3,351.4 596.1,350.9 602.9,350.8 609.8,350.7 616.6,351.0 623.4,351.2 630.2,350.6 637.1,350.0 643.9,349.6 650.7,349.7 657.6,350.0 664.4,349.6 671.2,349.3 678.1,349.1 684.9,347.8 691.7,346.3 698.6,346.7 705.4,347.1 712.2,346.3 719.1,346.3 725.9,346.6 732.7,346.6 739.6,346.8 746.4,346.4 753.2,345.7 760.1,345.7 766.9,346.2 773.7,345.3 780.6,346.7 787.4,345.3 794.2,346.1 801.1,345.7 807.9,346.7 814.7,346.5 821.6,345.6 828.4,346.6 835.2,346.8 842.0,346.9 848.9,346.7 855.7,347.3 862.5,347.4 869.4,345.6 876.2,345.0 883.0,345.1 889.9,345.6 896.7,346.6 903.5,346.3 910.4,346.0 917.2,344.3 924.0,343.2 930.9,342.7 937.7,342.6 944.5,343.2 951.4,343.5 958.2,342.5 965.0,341.3 971.9,339.6 978.7,336.5 985.5,336.3 992.4,336.7 999.2,335.9 1006.0,335.1 1012.9,335.7 1019.7,334.5 1026.5,333.6 1033.4,333.8 1040.2,333.6 1047.0,332.4 1053.9,331.2 1060.7,331.2 1067.5,332.5 1074.3,330.4 1081.2,330.3 1088.0,329.6 1094.8,329.8 1101.7,330.0 1108.5,328.4 1115.3,328.1 1122.2,328.5 1129.0,328.8 1135.8,328.0 1142.7,329.2 1149.5,330.1 1156.3,324.4 1163.2,323.4 1170.0,323.1" fill="none" stroke="#43d59b" stroke-width="3" stroke-linejoin="round" stroke-linecap="round"/>
<polyline points="70.0,361.3 76.8,361.2 83.7,361.2 90.5,360.6 97.3,360.2 104.2,360.5 111.0,360.3 117.8,360.1 124.7,360.0 131.5,359.7 138.3,359.3 145.2,359.1 152.0,359.4 158.8,359.1 165.7,359.0 172.5,358.8 179.3,358.6 186.1,358.6 193.0,358.5 199.8,358.2 206.6,358.5 213.5,358.5 220.3,358.4 227.1,358.5 234.0,358.6 240.8,357.8 247.6,358.1 254.5,357.7 261.3,357.4 268.1,357.7 275.0,357.3 281.8,357.8 288.6,357.8 295.5,357.2 302.3,356.9 309.1,356.5 316.0,357.0 322.8,357.0 329.6,356.5 336.5,356.3 343.3,356.0 350.1,356.1 357.0,355.6 363.8,355.2 370.6,355.7 377.5,355.4 384.3,355.3 391.1,354.8 398.0,354.3 404.8,353.7 411.6,353.4 418.4,353.5 425.3,353.1 432.1,353.3 438.9,352.6 445.8,352.8 452.6,352.8 459.4,352.4 466.3,352.4 473.1,352.6 479.9,350.4 486.8,350.7 493.6,351.3 500.4,351.1 507.3,350.6 514.1,350.6 520.9,350.5 527.8,349.8 534.6,349.3 541.4,351.0 548.3,350.9 555.1,351.5 561.9,351.0 568.8,350.7 575.6,350.3 582.4,349.8 589.3,350.5 596.1,349.4 602.9,349.1 609.8,349.4 616.6,349.3 623.4,348.5 630.2,347.8 637.1,347.1 643.9,346.7 650.7,346.6 657.6,347.3 664.4,346.6 671.2,346.6 678.1,346.6 684.9,345.9 691.7,345.5 698.6,345.9 705.4,346.0 712.2,345.4 719.1,345.2 725.9,345.3 732.7,344.7 739.6,344.6 746.4,344.3 753.2,343.9 760.1,343.1 766.9,342.5 773.7,342.1 780.6,343.2 787.4,342.1 794.2,341.0 801.1,340.3 807.9,341.5 814.7,342.2 821.6,341.8 828.4,343.4 835.2,343.4 842.0,344.0 848.9,343.2 855.7,343.7 862.5,344.6 869.4,344.4 876.2,343.3 883.0,343.8 889.9,342.4 896.7,342.1 903.5,340.9 910.4,340.6 917.2,339.0 924.0,337.9 930.9,337.3 937.7,337.4 944.5,338.2 951.4,337.5 958.2,335.8 965.0,335.3 971.9,334.1 978.7,332.0 985.5,332.1 992.4,333.1 999.2,331.6 1006.0,331.0 1012.9,330.8 1019.7,330.4 1026.5,329.7 1033.4,330.0 1040.2,330.1 1047.0,329.8 1053.9,330.0 1060.7,330.6 1067.5,331.6 1074.3,331.4 1081.2,330.7 1088.0,329.8 1094.8,329.8 1101.7,329.5 1108.5,327.4 1115.3,325.3 1122.2,325.9 1129.0,326.1 1135.8,326.5 1142.7,327.7 1149.5,328.1 1156.3,323.9 1163.2,321.0 1170.0,322.6" fill="none" stroke="#f1c75b" stroke-width="3" stroke-linejoin="round" stroke-linecap="round"/>
<line x1="70" y1="415" x2="98" y2="415" stroke="#f4f7fa" stroke-width="4"/>
<text x="106" y="420" fill="#dce8f2" font-family="Arial" font-size="14">V2 Core</text>
<line x1="300" y1="415" x2="328" y2="415" stroke="#4ca7ff" stroke-width="4"/>
<text x="336" y="420" fill="#dce8f2" font-family="Arial" font-size="14">SPY Benchmark</text>
<line x1="530" y1="415" x2="558" y2="415" stroke="#43d59b" stroke-width="4"/>
<text x="566" y="420" fill="#dce8f2" font-family="Arial" font-size="14">V1 Momentum</text>
<line x1="760" y1="415" x2="788" y2="415" stroke="#f1c75b" stroke-width="4"/>
<text x="796" y="420" fill="#dce8f2" font-family="Arial" font-size="14">V3 ML</text>
<text x="70" y="432" fill="#8292a2" font-family="Arial" font-size="12">2013-01-31 to 2026-06-24 ? 30 US stocks + 15 ETF risk factors</text>
</svg>